<svg width="563" height="379" viewBox="0 0 563 379" fill="none" xmlns="http://www.w3.org/2000/svg">
<g filter="url(#filter0_d_5_2)">
<path d="M163.618 357.078C163.018 358.008 158.198 358.298 144.628 358.208C134.628 358.148 125.638 357.888 124.648 357.628C123.008 357.208 122.868 355.577 122.938 337.497C122.978 326.677 122.998 313.438 122.978 308.078L122.938 298.328H118.068C104.798 298.328 82.8176 292.368 67.1476 284.508C55.7176 278.768 46.7476 272.217 36.8676 262.367C27.4176 252.967 22.3276 246.038 16.9176 235.288C11.8376 225.198 10.4776 221.578 7.26757 209.828C3.87757 197.408 2.92756 171.307 5.35756 157.367C10.3576 128.717 25.2176 103.218 46.9376 86.0475C58.9676 76.5275 94.3476 60.7375 99.3476 62.6575C100.718 63.1775 100.938 65.7375 100.938 81.2775V99.2975L93.9676 102.748C81.3276 108.988 72.7276 115.808 65.5176 125.288C56.6276 136.988 51.0276 150.098 48.8376 164.328C46.9176 176.828 48.9376 203.328 52.0776 206.778C52.5476 207.298 52.9376 208.487 52.9376 209.427C52.9376 210.357 54.2676 213.648 55.8876 216.728C66.8076 237.478 80.0676 249.818 100.208 257.938C108.048 261.098 121.478 264.118 122.628 262.978C122.928 262.668 123.228 203.468 123.298 131.418L123.408 0.417509L126.918 0.1275C128.858 -0.0425 137.978 -0.0425 147.188 0.1275L163.938 0.417509V29.3175C163.938 45.2075 164.328 58.4475 164.798 58.7475C165.278 59.0375 169.668 59.7375 174.548 60.2975C216.838 65.1375 250.618 86.6875 269.768 121.057C283.558 145.807 287.728 183.647 279.888 212.997C277.168 223.167 267.268 242.897 260.318 251.997C248.968 266.867 233.388 279.137 215.898 286.987C206.398 291.257 190.738 295.848 188.558 295.008C187.788 294.718 187.478 289.218 187.548 277.208L187.668 259.838L194.588 256.307C208.438 249.257 218.778 239.868 226.508 227.328C236.298 211.458 240.088 197.918 239.888 179.538C239.608 153.808 232.508 135.488 216.128 118.198C208.858 110.538 206.608 108.858 198.258 104.818C185.788 98.7875 166.338 93.9375 165.428 96.6275C165.208 97.2875 164.888 155.878 164.718 226.828C164.548 297.778 164.048 356.388 163.618 357.078ZM378.438 301.388C364.848 302.508 236.248 302.638 235.558 301.518C235.288 301.078 236.718 299.847 238.748 298.797C248.648 293.647 261.118 283.008 271.848 270.578L277.238 264.328H325.038C356.528 264.328 374.648 263.948 378.138 263.208C395.048 259.628 409.088 247.308 413.858 231.858C418.178 217.858 417.428 205.098 411.548 192.718C405.828 180.668 398.368 173.957 385.268 169.047C379.768 166.987 377.328 166.838 342.438 166.348L305.448 165.828L304.638 161.328C302.418 148.928 300.498 140.367 298.888 135.677C297.908 132.827 297.368 130.238 297.688 129.908C298.008 129.588 312.348 129.328 329.558 129.328C363.498 129.328 367.878 128.858 377.608 124.128C394.068 116.138 403.188 99.6675 401.598 80.8275C400.088 63.0275 390.688 48.8075 375.938 42.0175C369.698 39.1375 368.688 38.9875 350.438 38.3075C334.268 37.6975 273.328 37.2775 205.688 37.3175L187.938 37.3275V0.327512H276.218C330.818 0.327512 367.718 0.717511 372.968 1.35751C404.518 5.20751 428.438 21.8575 438.918 47.2775C444.928 61.8575 445.658 84.7775 440.578 99.6575C433.618 120.018 419.758 133.238 397.438 140.818C396.018 141.298 398.118 142.178 404.668 143.848C417.528 147.118 431.748 155.028 440.488 163.778C444.768 168.058 451.268 177.258 453.738 182.518C462.568 201.388 463.668 226.998 456.498 246.758C445.178 277.978 416.188 298.258 378.438 301.388Z" fill="url(#paint0_linear_5_2)"/>
<path d="M194.266 370.678C193.668 370.678 193.135 370.529 192.666 370.23C192.218 369.931 191.823 369.441 191.482 368.758C191.14 368.097 190.852 367.211 190.618 366.102C190.468 365.185 190.33 364.193 190.202 363.126C190.074 362.081 189.956 361.003 189.85 359.894C189.764 358.806 189.69 357.686 189.626 356.534C189.562 355.403 189.508 354.294 189.466 353.206C189.444 352.118 189.434 351.062 189.434 350.038C189.434 345.601 190.063 341.675 191.322 338.262C192.602 334.827 194.586 332.139 197.274 330.198C199.962 328.235 203.439 327.254 207.706 327.254C210.415 327.254 212.794 327.638 214.842 328.406C216.911 329.153 218.639 330.219 220.026 331.606C221.412 332.971 222.447 334.603 223.13 336.502C223.834 338.379 224.186 340.459 224.186 342.742C224.186 345.046 223.855 347.115 223.194 348.95C222.554 350.763 221.53 352.31 220.122 353.59C218.714 354.87 216.89 355.841 214.65 356.502C212.41 357.163 209.679 357.494 206.458 357.494C204.964 357.494 203.727 357.377 202.746 357.142C201.764 356.929 200.986 356.705 200.41 356.47C199.834 356.257 199.407 356.15 199.13 356.15C198.724 356.15 198.415 356.278 198.202 356.534C198.01 356.79 197.882 357.345 197.818 358.198C197.754 358.625 197.711 359.243 197.69 360.054C197.668 360.886 197.636 361.771 197.594 362.71C197.572 363.67 197.551 364.555 197.53 365.366C197.53 366.177 197.519 366.795 197.498 367.222C197.412 368.523 197.092 369.419 196.538 369.91C196.004 370.422 195.247 370.678 194.266 370.678ZM205.306 351.734C208.314 351.734 210.692 351.35 212.442 350.582C214.191 349.814 215.439 348.705 216.186 347.254C216.954 345.782 217.338 344.033 217.338 342.006C217.338 340.427 217.071 338.945 216.538 337.558C216.004 336.15 215.055 335.009 213.69 334.134C212.324 333.259 210.404 332.822 207.93 332.822C206.18 332.822 204.676 333.121 203.418 333.718C202.159 334.294 201.135 335.126 200.346 336.214C199.578 337.302 199.012 338.582 198.65 340.054C198.287 341.526 198.106 343.169 198.106 344.982C198.106 346.795 198.319 348.193 198.746 349.174C199.172 350.134 199.908 350.806 200.954 351.19C202.02 351.553 203.471 351.734 205.306 351.734ZM232.252 357.27C231.441 357.27 230.812 357.035 230.364 356.566C229.916 356.118 229.575 355.403 229.34 354.422C229.233 353.931 229.137 353.217 229.052 352.278C228.988 351.339 228.924 350.219 228.86 348.918C228.796 347.617 228.743 346.177 228.7 344.598C228.679 342.998 228.668 341.281 228.668 339.446C228.668 338.059 228.7 336.63 228.764 335.158C228.849 333.686 228.967 332.235 229.116 330.806C229.287 329.355 229.489 327.947 229.724 326.582C229.959 325.195 230.225 323.905 230.524 322.71C230.844 321.494 231.196 320.395 231.58 319.414C232.135 318.155 232.796 317.206 233.564 316.566C234.332 315.926 235.185 315.606 236.124 315.606C237.148 315.606 237.948 315.979 238.524 316.726C239.1 317.451 239.388 318.539 239.388 319.99C239.388 320.758 239.356 321.611 239.292 322.55C239.228 323.489 239.143 324.438 239.036 325.398C238.929 326.358 238.823 327.286 238.716 328.182C238.631 329.078 238.545 329.878 238.46 330.582C238.396 331.286 238.364 331.841 238.364 332.246C238.364 332.886 238.492 333.206 238.748 333.206C238.983 333.206 239.335 332.95 239.804 332.438C240.295 331.905 240.977 331.307 241.852 330.646C242.748 329.963 243.911 329.366 245.34 328.854C246.769 328.321 248.54 328.054 250.652 328.054C252.999 328.054 254.94 328.491 256.476 329.366C258.033 330.219 259.26 331.371 260.156 332.822C261.052 334.251 261.692 335.841 262.076 337.59C262.46 339.339 262.652 341.089 262.652 342.838C262.652 343.713 262.588 344.683 262.46 345.75C262.353 346.817 262.204 347.894 262.012 348.982C261.82 350.049 261.596 351.051 261.34 351.99C261.105 352.929 260.839 353.707 260.54 354.326C260.156 355.073 259.633 355.627 258.972 355.99C258.332 356.374 257.543 356.566 256.604 356.566C255.836 356.566 255.249 356.395 254.844 356.054C254.439 355.713 254.14 355.265 253.948 354.71C253.863 354.262 253.841 353.643 253.884 352.854C253.948 352.043 254.023 351.137 254.108 350.134C254.215 349.11 254.3 348.054 254.364 346.966C254.428 345.857 254.439 344.79 254.396 343.766C254.375 342.657 254.247 341.558 254.012 340.47C253.799 339.361 253.447 338.347 252.956 337.43C252.487 336.491 251.815 335.745 250.94 335.19C250.087 334.635 248.999 334.358 247.676 334.358C246.033 334.358 244.583 334.646 243.324 335.222C242.087 335.777 241.041 336.491 240.188 337.366C239.356 338.241 238.705 339.147 238.236 340.086C237.788 341.025 237.521 341.857 237.436 342.582C237.329 343.99 237.223 345.281 237.116 346.454C237.009 347.606 236.892 348.662 236.764 349.622C236.657 350.582 236.529 351.446 236.38 352.214C236.231 352.982 236.071 353.686 235.9 354.326C235.559 355.307 235.079 356.043 234.46 356.534C233.863 357.025 233.127 357.27 232.252 357.27ZM273.427 356.534C272.424 356.534 271.624 356.331 271.027 355.926C270.451 355.542 270.045 354.923 269.811 354.07C269.576 353.195 269.459 352.097 269.459 350.774C269.459 350.049 269.469 349.174 269.491 348.15C269.533 347.126 269.587 346.017 269.651 344.822C269.715 343.606 269.789 342.379 269.875 341.142C269.96 339.905 270.056 338.721 270.163 337.59C270.269 336.438 270.376 335.403 270.483 334.486C270.589 333.569 270.696 332.833 270.803 332.278C271.229 330.934 271.859 329.931 272.691 329.27C273.544 328.609 274.611 328.278 275.891 328.278C277.107 328.278 277.992 328.737 278.547 329.654C279.101 330.571 279.379 331.894 279.379 333.622C279.379 334.262 279.357 335.126 279.315 336.214C279.272 337.302 279.208 338.507 279.123 339.83C279.037 341.153 278.941 342.507 278.835 343.894C278.749 345.281 278.632 346.614 278.483 347.894C278.355 349.153 278.227 350.273 278.099 351.254C277.971 352.214 277.821 352.939 277.651 353.43C277.224 354.582 276.659 355.382 275.955 355.83C275.272 356.299 274.429 356.534 273.427 356.534ZM275.603 323.318C273.597 323.318 272.221 322.977 271.475 322.294C270.728 321.611 270.355 320.843 270.355 319.99C270.355 318.902 270.749 317.995 271.539 317.27C272.328 316.523 273.299 315.958 274.451 315.574C275.603 315.19 276.755 314.998 277.907 314.998C278.739 314.998 279.507 315.137 280.211 315.414C280.915 315.691 281.469 316.118 281.875 316.694C282.301 317.27 282.515 318.027 282.515 318.966C282.515 319.99 282.195 320.822 281.555 321.462C280.915 322.102 280.072 322.571 279.027 322.87C277.981 323.169 276.84 323.318 275.603 323.318ZM303.453 356.406C299.741 356.406 296.69 355.787 294.301 354.55C291.933 353.313 290.173 351.467 289.021 349.014C287.869 346.539 287.293 343.489 287.293 339.862C287.293 338.347 287.346 336.779 287.453 335.158C287.56 333.537 287.709 331.915 287.901 330.294C288.093 328.673 288.328 327.115 288.605 325.622C288.882 324.107 289.181 322.731 289.501 321.494C289.821 320.235 290.173 319.158 290.557 318.262C291.09 317.302 291.72 316.555 292.445 316.022C293.17 315.489 293.981 315.222 294.877 315.222C295.944 315.222 296.744 315.531 297.277 316.15C297.832 316.769 298.109 317.601 298.109 318.646C298.109 319.137 298.077 319.702 298.013 320.342C297.97 320.961 297.906 321.633 297.821 322.358C297.757 323.062 297.682 323.777 297.597 324.502C297.533 325.227 297.469 325.931 297.405 326.614C297.341 327.275 297.309 327.915 297.309 328.534C297.309 329.451 297.341 330.177 297.405 330.71C297.469 331.222 297.672 331.478 298.013 331.478C298.312 331.478 298.738 331.35 299.293 331.094C299.869 330.817 300.498 330.486 301.181 330.102C301.906 329.654 302.834 329.249 303.965 328.886C305.117 328.502 306.546 328.31 308.253 328.31C311.048 328.31 313.437 328.886 315.421 330.038C317.405 331.169 318.92 332.747 319.965 334.774C321.032 336.801 321.565 339.169 321.565 341.878C321.565 344.331 321.106 346.475 320.189 348.31C319.293 350.123 318.024 351.638 316.381 352.854C314.76 354.049 312.85 354.945 310.653 355.542C308.456 356.118 306.056 356.406 303.453 356.406ZM304.317 351.446C305.32 351.446 306.354 351.297 307.421 350.998C308.509 350.699 309.512 350.209 310.429 349.526C311.368 348.843 312.136 347.958 312.733 346.87C313.33 345.761 313.629 344.406 313.629 342.806C313.629 340.843 313.298 339.179 312.637 337.814C311.976 336.427 310.994 335.371 309.693 334.646C308.392 333.921 306.76 333.558 304.797 333.558C303.069 333.558 301.522 333.889 300.157 334.55C298.813 335.19 297.757 336.107 296.989 337.302C296.221 338.475 295.837 339.873 295.837 341.494C295.837 343.457 296.114 345.185 296.669 346.678C297.245 348.171 298.141 349.345 299.357 350.198C300.594 351.03 302.248 351.446 304.317 351.446ZM339.322 358.774C337.594 358.774 335.951 358.603 334.394 358.262C332.858 357.921 331.492 357.377 330.298 356.63C329.103 355.883 328.164 354.913 327.482 353.718C326.799 352.523 326.458 351.062 326.458 349.334C326.458 347.371 326.938 345.761 327.898 344.502C328.858 343.243 330.159 342.262 331.802 341.558C333.466 340.833 335.332 340.331 337.402 340.054C339.471 339.777 341.615 339.638 343.834 339.638C344.516 339.638 345.21 339.659 345.914 339.702C346.618 339.745 347.279 339.787 347.898 339.83C348.538 339.873 349.06 339.894 349.466 339.894C350.02 339.894 350.394 339.809 350.586 339.638C350.778 339.446 350.874 339.126 350.874 338.678C350.874 337.846 350.767 337.11 350.554 336.47C350.362 335.83 350.074 335.265 349.69 334.774C349.306 334.283 348.847 333.867 348.314 333.526C347.46 332.95 346.426 332.545 345.21 332.31C344.015 332.054 342.724 331.926 341.338 331.926C339.695 331.926 338.234 332.097 336.954 332.438C335.695 332.779 334.575 333.131 333.594 333.494C332.612 333.857 331.716 334.038 330.906 334.038C329.796 334.038 328.943 333.857 328.346 333.494C327.748 333.131 327.45 332.545 327.45 331.734C327.45 330.902 327.802 330.134 328.506 329.43C329.21 328.726 330.18 328.107 331.418 327.574C332.676 327.041 334.127 326.625 335.77 326.326C337.434 326.027 339.204 325.878 341.082 325.878C344.858 325.878 348.015 326.358 350.554 327.318C353.114 328.257 355.034 329.793 356.314 331.926C357.594 334.038 358.234 336.886 358.234 340.47C358.234 341.537 358.18 342.465 358.074 343.254C357.967 344.043 357.828 344.737 357.658 345.334C357.508 345.91 357.38 346.411 357.274 346.838C357.167 347.265 357.114 347.659 357.114 348.022C357.114 348.534 357.274 349.025 357.594 349.494C357.935 349.942 358.33 350.39 358.778 350.838C359.247 351.286 359.652 351.766 359.994 352.278C360.335 352.769 360.506 353.323 360.506 353.942C360.506 354.859 360.207 355.521 359.61 355.926C359.012 356.331 358.351 356.534 357.626 356.534C356.964 356.534 356.41 356.31 355.962 355.862C355.535 355.435 355.14 355.009 354.778 354.582C354.436 354.155 354.01 353.942 353.498 353.942C353.199 353.942 352.868 354.027 352.506 354.198C352.164 354.369 351.738 354.635 351.226 354.998C350.586 355.467 349.764 355.99 348.762 356.566C347.78 357.163 346.522 357.675 344.986 358.102C343.45 358.55 341.562 358.774 339.322 358.774ZM340.186 353.878C341.508 353.878 342.788 353.675 344.026 353.27C345.263 352.843 346.372 352.267 347.354 351.542C348.335 350.795 349.114 349.931 349.69 348.95C350.266 347.947 350.554 346.87 350.554 345.718C350.554 344.993 350.308 344.47 349.818 344.15C349.348 343.83 348.57 343.627 347.482 343.542C346.394 343.457 344.954 343.414 343.162 343.414C341.391 343.414 339.748 343.595 338.234 343.958C336.719 344.299 335.503 344.886 334.586 345.718C333.668 346.529 333.21 347.638 333.21 349.046C333.21 350.134 333.487 351.03 334.042 351.734C334.596 352.438 335.396 352.971 336.442 353.334C337.487 353.697 338.735 353.878 340.186 353.878ZM371.304 356.502C370.685 356.502 370.131 356.374 369.64 356.118C369.149 355.883 368.701 355.553 368.296 355.126C367.912 354.699 367.56 354.198 367.24 353.622C366.856 352.811 366.504 351.873 366.184 350.806C365.864 349.739 365.587 348.63 365.352 347.478C365.139 346.305 364.979 345.142 364.872 343.99C364.765 342.838 364.712 341.771 364.712 340.79C364.712 337.313 365.363 334.369 366.664 331.958C367.965 329.547 369.843 327.713 372.296 326.454C374.749 325.195 377.693 324.566 381.128 324.566C382.579 324.566 383.965 324.673 385.288 324.886C386.632 325.099 387.827 325.419 388.872 325.846C389.917 326.251 390.739 326.763 391.336 327.382C391.955 327.979 392.264 328.673 392.264 329.462C392.264 330.102 392.125 330.625 391.848 331.03C391.571 331.414 391.208 331.691 390.76 331.862C390.333 332.033 389.885 332.118 389.416 332.118C388.435 332.118 387.357 331.958 386.184 331.638C385.032 331.297 383.528 331.126 381.672 331.126C378.877 331.126 376.776 331.99 375.368 333.718C373.981 335.446 373.288 337.793 373.288 340.758C373.288 341.825 373.341 342.859 373.448 343.862C373.555 344.843 373.683 345.793 373.832 346.71C373.981 347.606 374.131 348.438 374.28 349.206C374.429 349.974 374.547 350.657 374.632 351.254C374.739 351.851 374.792 352.342 374.792 352.726C374.792 354.049 374.493 355.009 373.896 355.606C373.32 356.203 372.456 356.502 371.304 356.502ZM394.642 356.534C393.404 356.534 392.37 356.321 391.538 355.894C390.706 355.467 390.066 354.923 389.618 354.262C389.17 353.579 388.946 352.865 388.946 352.118C388.946 351.094 389.287 350.241 389.97 349.558C390.652 348.875 391.495 348.353 392.498 347.99C393.5 347.627 394.482 347.446 395.442 347.446C396.338 347.446 397.127 347.617 397.81 347.958C398.492 348.278 399.036 348.758 399.442 349.398C399.847 350.017 400.05 350.763 400.05 351.638C400.05 352.577 399.804 353.419 399.314 354.166C398.844 354.913 398.204 355.489 397.394 355.894C396.583 356.321 395.666 356.534 394.642 356.534ZM413.287 355.798C411.857 355.798 410.631 355.467 409.607 354.806C408.604 354.145 407.74 353.185 407.015 351.926C406.673 351.265 406.343 350.305 406.023 349.046C405.703 347.766 405.393 346.326 405.095 344.726C404.817 343.105 404.572 341.451 404.359 339.766C404.167 338.059 404.017 336.449 403.911 334.934C403.804 333.398 403.751 332.086 403.751 330.998C403.751 329.889 403.889 328.907 404.167 328.054C404.465 327.179 404.903 326.497 405.479 326.006C406.055 325.494 406.791 325.238 407.687 325.238C408.711 325.238 409.468 325.558 409.959 326.198C410.471 326.838 410.844 327.83 411.079 329.174C411.164 329.942 411.26 330.859 411.367 331.926C411.473 332.993 411.591 334.123 411.719 335.318C411.868 336.513 412.017 337.707 412.167 338.902C412.337 340.075 412.497 341.153 412.647 342.134C412.817 343.094 412.988 343.883 413.159 344.502C413.351 345.249 413.607 345.846 413.927 346.294C414.247 346.742 414.631 346.966 415.079 346.966C415.505 346.966 415.868 346.721 416.167 346.23C416.465 345.739 416.721 345.089 416.935 344.278C417.191 343.19 417.457 341.953 417.735 340.566C418.012 339.158 418.3 337.718 418.599 336.246C418.919 334.753 419.239 333.302 419.559 331.894C419.9 330.486 420.263 329.217 420.647 328.086C421.116 327.019 421.767 326.155 422.599 325.494C423.431 324.833 424.583 324.502 426.055 324.502C427.399 324.502 428.433 324.801 429.159 325.398C429.884 325.995 430.428 326.742 430.791 327.638C431.025 328.321 431.292 329.206 431.591 330.294C431.889 331.382 432.188 332.555 432.487 333.814C432.785 335.051 433.073 336.299 433.351 337.558C433.649 338.795 433.905 339.947 434.119 341.014C434.353 342.059 434.545 342.913 434.695 343.574C434.908 344.555 435.164 345.334 435.463 345.91C435.761 346.465 436.103 346.742 436.487 346.742C436.977 346.742 437.361 346.518 437.639 346.07C437.937 345.622 438.236 344.971 438.535 344.118C438.769 343.435 439.004 342.465 439.239 341.206C439.495 339.947 439.74 338.561 439.975 337.046C440.209 335.531 440.433 334.038 440.647 332.566C440.881 331.094 441.084 329.803 441.255 328.694C441.575 327.457 441.991 326.571 442.503 326.038C443.036 325.483 443.772 325.206 444.711 325.206C445.287 325.206 445.831 325.313 446.343 325.526C446.876 325.739 447.345 326.081 447.751 326.55C448.177 327.019 448.508 327.649 448.743 328.438C448.977 329.227 449.095 330.187 449.095 331.318C449.095 332.193 449.031 333.227 448.903 334.422C448.796 335.595 448.636 336.854 448.423 338.198C448.209 339.542 447.964 340.886 447.687 342.23C447.431 343.574 447.143 344.865 446.823 346.102C446.503 347.339 446.172 348.449 445.831 349.43C445.511 350.411 445.18 351.19 444.839 351.766C444.028 352.982 443.057 353.931 441.927 354.614C440.817 355.297 439.516 355.638 438.023 355.638C436.508 355.638 435.239 355.201 434.215 354.326C433.191 353.451 432.455 352.449 432.007 351.318C431.687 350.23 431.356 348.982 431.015 347.574C430.695 346.166 430.353 344.726 429.991 343.254C429.628 341.761 429.276 340.331 428.935 338.966C428.615 337.579 428.327 336.385 428.071 335.382C427.879 334.55 427.644 333.857 427.367 333.302C427.089 332.726 426.652 332.438 426.055 332.438C425.457 332.438 424.967 332.737 424.583 333.334C424.199 333.91 423.911 334.614 423.719 335.446C423.527 336.193 423.303 337.142 423.047 338.294C422.791 339.425 422.535 340.641 422.279 341.942C422.023 343.222 421.756 344.502 421.479 345.782C421.201 347.062 420.935 348.235 420.679 349.302C420.423 350.347 420.177 351.179 419.943 351.798C419.452 352.886 418.609 353.825 417.415 354.614C416.241 355.403 414.865 355.798 413.287 355.798ZM471.257 357.366C468.782 357.366 466.393 357.089 464.089 356.534C461.806 355.979 459.758 355.094 457.945 353.878C456.153 352.662 454.734 351.083 453.689 349.142C452.644 347.179 452.121 344.79 452.121 341.974C452.121 338.881 452.622 336.182 453.625 333.878C454.649 331.553 456.057 329.622 457.849 328.086C459.641 326.529 461.71 325.366 464.057 324.598C466.425 323.809 468.953 323.414 471.641 323.414C474.073 323.414 476.452 323.723 478.777 324.342C481.102 324.961 483.193 325.931 485.049 327.254C486.905 328.577 488.377 330.294 489.465 332.406C490.574 334.497 491.129 337.025 491.129 339.99C491.129 342.23 490.67 344.385 489.753 346.454C488.857 348.523 487.545 350.379 485.817 352.022C484.11 353.643 482.03 354.934 479.577 355.894C477.145 356.875 474.372 357.366 471.257 357.366ZM470.969 350.294C473.145 350.294 474.99 349.963 476.505 349.302C478.02 348.619 479.246 347.734 480.185 346.646C481.145 345.537 481.838 344.331 482.265 343.03C482.713 341.729 482.937 340.438 482.937 339.158C482.937 337.366 482.585 335.851 481.881 334.614C481.198 333.355 480.281 332.342 479.129 331.574C477.998 330.806 476.729 330.251 475.321 329.91C473.913 329.547 472.473 329.366 471.001 329.366C469.081 329.366 467.268 329.782 465.561 330.614C463.854 331.425 462.468 332.662 461.401 334.326C460.356 335.969 459.833 338.049 459.833 340.566C459.833 342.614 460.249 344.374 461.081 345.846C461.934 347.297 463.193 348.406 464.857 349.174C466.521 349.921 468.558 350.294 470.969 350.294ZM502.804 356.502C502.185 356.502 501.631 356.374 501.14 356.118C500.649 355.883 500.201 355.553 499.796 355.126C499.412 354.699 499.06 354.198 498.74 353.622C498.356 352.811 498.004 351.873 497.684 350.806C497.364 349.739 497.087 348.63 496.852 347.478C496.639 346.305 496.479 345.142 496.372 343.99C496.265 342.838 496.212 341.771 496.212 340.79C496.212 337.313 496.863 334.369 498.164 331.958C499.465 329.547 501.343 327.713 503.796 326.454C506.249 325.195 509.193 324.566 512.628 324.566C514.079 324.566 515.465 324.673 516.788 324.886C518.132 325.099 519.327 325.419 520.372 325.846C521.417 326.251 522.239 326.763 522.836 327.382C523.455 327.979 523.764 328.673 523.764 329.462C523.764 330.102 523.625 330.625 523.348 331.03C523.071 331.414 522.708 331.691 522.26 331.862C521.833 332.033 521.385 332.118 520.916 332.118C519.935 332.118 518.857 331.958 517.684 331.638C516.532 331.297 515.028 331.126 513.172 331.126C510.377 331.126 508.276 331.99 506.868 333.718C505.481 335.446 504.788 337.793 504.788 340.758C504.788 341.825 504.841 342.859 504.948 343.862C505.055 344.843 505.183 345.793 505.332 346.71C505.481 347.606 505.631 348.438 505.78 349.206C505.929 349.974 506.047 350.657 506.132 351.254C506.239 351.851 506.292 352.342 506.292 352.726C506.292 354.049 505.993 355.009 505.396 355.606C504.82 356.203 503.956 356.502 502.804 356.502ZM530.629 356.95C529.797 356.95 529.146 356.737 528.677 356.31C528.207 355.905 527.877 355.318 527.685 354.55C527.514 353.782 527.429 352.886 527.429 351.862C527.429 350.923 527.503 349.707 527.653 348.214C527.823 346.721 528.026 345.025 528.261 343.126C528.495 341.206 528.719 339.169 528.933 337.014C529.146 334.902 529.37 332.95 529.605 331.158C529.861 329.345 530.106 327.691 530.341 326.198C530.575 324.705 530.821 323.382 531.077 322.23C531.333 321.057 531.567 320.075 531.781 319.286C532.25 317.835 532.794 316.779 533.413 316.118C534.031 315.457 534.757 315.126 535.589 315.126C536.655 315.126 537.37 315.531 537.733 316.342C538.117 317.153 538.309 318.358 538.309 319.958C538.309 320.662 538.277 321.451 538.213 322.326C538.17 323.201 538.095 324.129 537.989 325.11C537.903 326.091 537.807 327.083 537.701 328.086C537.615 329.089 537.519 330.07 537.413 331.03C537.327 331.99 537.253 332.897 537.189 333.75C537.146 334.582 537.125 335.307 537.125 335.926C537.125 336.609 537.157 337.174 537.221 337.622C537.306 338.049 537.455 338.262 537.669 338.262C537.882 338.262 538.117 338.177 538.373 338.006C538.629 337.814 538.917 337.558 539.237 337.238C539.578 336.939 540.058 336.491 540.677 335.894C541.317 335.297 542.01 334.635 542.757 333.91C543.503 333.185 544.239 332.481 544.965 331.798C545.711 331.094 546.362 330.497 546.917 330.006C547.493 329.494 547.898 329.153 548.133 328.982C548.645 328.598 549.199 328.299 549.797 328.086C550.394 327.873 550.949 327.766 551.461 327.766C552.293 327.766 552.954 327.99 553.445 328.438C553.935 328.865 554.181 329.409 554.181 330.07C554.181 330.625 553.978 331.243 553.573 331.926C553.167 332.587 552.57 333.238 551.781 333.878C550.543 335.137 549.306 336.257 548.069 337.238C546.831 338.198 545.669 339.222 544.581 340.31C544.047 340.801 543.781 341.195 543.781 341.494C543.781 341.665 543.855 341.825 544.005 341.974C544.154 342.102 544.378 342.273 544.677 342.486C545.274 342.913 546.074 343.467 547.077 344.15C548.101 344.833 549.199 345.569 550.373 346.358C551.546 347.147 552.666 347.905 553.733 348.63C554.821 349.355 555.706 349.995 556.389 350.55C556.858 350.934 557.231 351.307 557.509 351.67C557.807 352.033 557.957 352.427 557.957 352.854C557.957 353.323 557.807 353.782 557.509 354.23C557.231 354.657 556.847 354.998 556.357 355.254C555.887 355.51 555.343 355.638 554.725 355.638C554.063 355.638 553.413 355.489 552.773 355.19C552.154 354.87 551.557 354.497 550.981 354.07C550.085 353.451 549.018 352.683 547.781 351.766C546.543 350.849 545.274 349.878 543.973 348.854C542.693 347.83 541.509 346.87 540.421 345.974C539.887 345.526 539.386 345.163 538.917 344.886C538.447 344.587 538.01 344.438 537.605 344.438C537.178 344.438 536.826 344.577 536.549 344.854C536.293 345.131 536.101 345.537 535.973 346.07C535.546 348.161 535.162 349.878 534.821 351.222C534.479 352.545 534.181 353.59 533.925 354.358C533.541 355.339 533.082 356.011 532.549 356.374C532.037 356.758 531.397 356.95 530.629 356.95Z" fill="url(#paint1_linear_5_2)"/>
</g>
<defs>
<filter id="filter0_d_5_2" x="0" y="0" width="567" height="386" filterUnits="userSpaceOnUse" color-interpolation-filters="sRGB">
<feFlood flood-opacity="0" result="BackgroundImageFix"/>
<feColorMatrix in="SourceAlpha" type="matrix" values="0 0 0 0 0 0 0 0 0 0 0 0 0 0 0 0 0 0 127 0" result="hardAlpha"/>
<feOffset dy="4"/>
<feGaussianBlur stdDeviation="2"/>
<feComposite in2="hardAlpha" operator="out"/>
<feColorMatrix type="matrix" values="0 0 0 0 0 0 0 0 0 0 0 0 0 0 0 0 0 0 0.25 0"/>
<feBlend mode="normal" in2="BackgroundImageFix" result="effect1_dropShadow_5_2"/>
<feBlend mode="normal" in="SourceGraphic" in2="effect1_dropShadow_5_2" result="shape"/>
</filter>
<linearGradient id="paint0_linear_5_2" x1="4" y1="0" x2="34786" y2="44392.7" gradientUnits="userSpaceOnUse">
<stop stop-color="#3A6DD6"/>
<stop offset="0.38" stop-color="#2C5BC9"/>
<stop offset="0.72" stop-color="#2F87C9"/>
<stop offset="1" stop-color="#22C5C6"/>
</linearGradient>
<linearGradient id="paint1_linear_5_2" x1="189.434" y1="314.998" x2="1834.42" y2="11202.5" gradientUnits="userSpaceOnUse">
<stop stop-color="#3A6DD6"/>
<stop offset="0.38" stop-color="#2C5BC9"/>
<stop offset="0.72" stop-color="#2F87C9"/>
<stop offset="1" stop-color="#22C5C6"/>
</linearGradient>
</defs>
</svg>
